<svg width="571" height="571" viewBox="0 0 571 571" fill="none" xmlns="http://www.w3.org/2000/svg">
<path d="M309.368 448.041H333.247V448.326H309.368V448.041Z" fill="#E0E0E0"/>
<path d="M251.023 444.957H314.153V445.243H251.023V444.957Z" fill="#E0E0E0"/>
<path d="M137.006 450.245H152.263V450.53H137.006V450.245Z" fill="#E0E0E0"/>
<path d="M158.601 450.245H163.58V450.53H158.601V450.245Z" fill="#E0E0E0"/>
<path d="M95.1743 88.8019H236.691V310.304H95.1743V88.8019Z" fill="#E0E0E0"/>
<path d="M88.9504 88.8019H233.779V310.304H88.9504V88.8019Z" fill="#EBEBEB"/>
<path d="M95.1743 310.316H236.691V321.861H95.1743V310.316Z" fill="#E6E6E6"/>
<path d="M78.6039 310.316H223.432V321.861H78.6039V310.316Z" fill="#F0F0F0"/>
<path d="M97.6523 97.504H225.077V301.614H97.6523V97.504Z" fill="#FAFAFA"/>
<path d="M179.34 301.614L150.858 97.504H126.75L155.232 301.614H179.34Z" fill="white"/>
<path d="M219.264 285.5C219.429 285.497 219.585 285.43 219.701 285.312C219.816 285.195 219.881 285.037 219.881 284.872V103.168C219.892 103.087 219.887 103.003 219.866 102.924C219.845 102.844 219.809 102.769 219.759 102.703C219.709 102.637 219.647 102.582 219.576 102.54C219.504 102.499 219.426 102.472 219.344 102.46C219.262 102.449 219.179 102.454 219.099 102.475C219.019 102.496 218.944 102.532 218.879 102.582C218.813 102.632 218.758 102.694 218.716 102.765C218.674 102.837 218.647 102.915 218.636 102.997C218.624 103.054 218.624 103.112 218.636 103.168V284.872C218.636 285.039 218.702 285.198 218.82 285.316C218.938 285.434 219.097 285.5 219.264 285.5Z" fill="#E6E6E6"/>
<path d="M150.059 301.614L121.577 97.504H112.179L140.66 301.614H150.059Z" fill="white"/>
<path d="M97.6525 97.504H98.7603V301.614H97.6525V97.504Z" fill="#E6E6E6"/>
<path d="M86.9063 104.185H228.412L229.211 100.884H87.7057L86.9063 104.185Z" fill="#E0E0E0"/>
<path d="M86.9063 106.594H228.412L229.211 103.305H87.7057L86.9063 106.594Z" fill="#E0E0E0"/>
<path d="M86.9063 109.495H228.412L229.211 106.195H87.7057L86.9063 109.495Z" fill="#E0E0E0"/>
<path d="M86.9063 112.727H228.412L229.211 109.426H87.7057L86.9063 112.727Z" fill="#E0E0E0"/>
<path d="M86.9063 116.587H228.412L229.211 113.286H87.7057L86.9063 116.587Z" fill="#E0E0E0"/>
<path d="M86.9063 120.938H228.412L229.211 117.637H87.7057L86.9063 120.938Z" fill="#E0E0E0"/>
<path d="M465.593 282.074C465.593 285.5 463.184 287.944 466.644 287.944C470.104 287.944 478.064 285.534 478.064 282.074C478.064 280.408 477.402 278.811 476.224 277.633C475.046 276.455 473.449 275.793 471.783 275.793C470.117 275.793 468.52 276.455 467.342 277.633C466.164 278.811 465.502 280.408 465.502 282.074H465.593Z" fill="#E0E0E0"/>
<path d="M454.881 285.077C454.881 288.503 452.472 290.936 455.932 290.936C459.392 290.936 467.352 288.526 467.352 285.077C467.352 283.412 466.69 281.814 465.512 280.636C464.334 279.458 462.737 278.796 461.071 278.796C459.405 278.796 457.808 279.458 456.63 280.636C455.452 281.814 454.79 283.412 454.79 285.077H454.881Z" fill="#E0E0E0"/>
<path d="M444.615 283.216C444.615 286.642 442.205 289.074 445.665 289.074C449.126 289.074 457.085 286.665 457.085 283.216C457.085 281.55 456.424 279.953 455.246 278.775C454.068 277.597 452.47 276.935 450.804 276.935C449.139 276.935 447.541 277.597 446.363 278.775C445.185 279.953 444.523 281.55 444.523 283.216H444.615Z" fill="#E0E0E0"/>
<path d="M481.924 284.05C481.924 284.05 481.41 296.258 461.791 296.258C442.171 296.258 441.657 284.05 441.657 284.05H481.924Z" fill="#F0F0F0"/>
<path d="M250.909 296.269H259.805V436.701H250.909V296.269Z" fill="#E0E0E0"/>
<path d="M248.1 296.269H254.278V436.701H248.1V296.269Z" fill="#F0F0F0"/>
<path d="M246.181 296.269H430.899V307.198H246.181V296.269Z" fill="#F0F0F0"/>
<path d="M434.885 307.198H443.781V436.701H434.885V307.198Z" fill="#E0E0E0"/>
<path d="M432.076 307.198H438.254V436.701H432.076V307.198Z" fill="#F0F0F0"/>
<path d="M491.186 307.198H500.082V436.701H491.186V307.198Z" fill="#E0E0E0"/>
<path d="M488.376 307.198H494.554V436.701H488.376V307.198Z" fill="#F0F0F0"/>
<path d="M307.21 307.198H316.106V436.701H307.21V307.198Z" fill="#E0E0E0"/>
<path d="M304.4 307.198H310.578V436.701H304.4V307.198Z" fill="#F0F0F0"/>
<path d="M430.899 296.269H500.082V307.198H430.899V296.269Z" fill="#E0E0E0"/>
<path d="M432.076 249.995H357.823L347.065 293.837H421.318L432.076 249.995Z" fill="#E0E0E0"/>
<path d="M421.318 293.837L421.01 296.269H346.757L347.054 293.837H421.318Z" fill="#E0E0E0"/>
<path d="M429.792 249.995H355.539L344.781 293.837H419.023L429.792 249.995Z" fill="#F0F0F0"/>
<path d="M417.458 291.838L427.234 251.994H357.103L347.328 291.838H417.458Z" fill="white"/>
<path d="M399.677 293.837L399.38 296.269H317.613L317.91 293.837H399.677Z" fill="#EBEBEB"/>
<path d="M256.231 278.397C256.445 278.408 256.658 278.431 256.87 278.465V277.026C256.87 276.548 257.06 276.089 257.399 275.75C257.737 275.412 258.196 275.222 258.674 275.222H272.767C273.245 275.222 273.704 275.412 274.043 275.75C274.381 276.089 274.571 276.548 274.571 277.026V296.258H256.87V293.026C256.658 293.056 256.445 293.075 256.231 293.083C255.532 293.083 254.84 292.945 254.194 292.678C253.548 292.41 252.962 292.018 252.468 291.524C251.973 291.03 251.581 290.443 251.314 289.798C251.046 289.152 250.909 288.46 250.909 287.761V283.73C250.909 282.317 251.469 280.963 252.467 279.963C253.465 278.963 254.818 278.4 256.231 278.397ZM253.193 287.761C253.193 288.567 253.513 289.339 254.083 289.909C254.652 290.479 255.425 290.799 256.231 290.799C256.446 290.799 256.66 290.776 256.87 290.73V280.749C256.66 280.703 256.446 280.68 256.231 280.681C255.424 280.684 254.651 281.006 254.082 281.578C253.512 282.149 253.193 282.923 253.193 283.73V287.761Z" fill="#E6E6E6"/>
<path d="M332.79 436.701H335.257L342.326 401.893L343.559 395.794L351.268 357.869H380.8L396.788 436.667H399.255L382.947 356.384C382.906 356.112 382.767 355.863 382.557 355.685C382.348 355.507 382.08 355.41 381.805 355.413H350.297C350.022 355.41 349.754 355.507 349.545 355.685C349.335 355.863 349.196 356.112 349.155 356.384L342.383 389.696L341.15 395.783L332.79 436.701Z" fill="#E0E0E0"/>
<path d="M285.363 436.701H287.784L303.772 357.903H333.384L341.093 395.851L342.326 401.984L349.395 436.792H351.862L343.559 395.886L342.326 389.822L335.565 356.51C335.51 356.244 335.367 356.004 335.161 355.829C334.954 355.653 334.694 355.551 334.423 355.539H302.915C302.64 355.536 302.373 355.632 302.163 355.811C301.953 355.989 301.815 356.237 301.773 356.51L285.363 436.701Z" fill="#E0E0E0"/>
<path d="M358.177 356.658H303.898C298.921 356.656 294.143 354.706 290.587 351.224C287.031 347.743 284.979 343.007 284.872 338.032L282.85 255.545C282.813 253.726 283.133 251.917 283.795 250.222C284.456 248.527 285.445 246.979 286.705 245.666C287.965 244.353 289.471 243.301 291.138 242.57C292.804 241.84 294.598 241.445 296.417 241.407H330.735C334.138 241.408 337.423 242.66 339.963 244.926C342.503 247.192 344.12 250.314 344.507 253.695L358.177 356.658Z" fill="#F0F0F0"/>
<path d="M328.576 356.658H386.407C387.125 356.658 387.813 356.373 388.321 355.865C388.829 355.358 389.114 354.669 389.114 353.952V353.7C389.115 352.724 388.924 351.756 388.551 350.853C388.178 349.951 387.63 349.131 386.94 348.44C386.249 347.749 385.429 347.202 384.526 346.829C383.623 346.456 382.656 346.264 381.679 346.266H328.576V356.658Z" fill="#F0F0F0"/>
<path d="M339.037 95.4484H494.829V217.871H339.037V95.4484Z" fill="#E0E0E0"/>
<path d="M337.21 95.4484H493.001V217.871H337.21V95.4484Z" fill="#EBEBEB"/>
<path d="M347.465 105.704H482.746V207.616H347.465V105.704Z" fill="white"/>
<path opacity="0.5" d="M482.746 137.337V207.616H365.303C361.717 193.078 366.342 178.449 384.717 170.478C400.579 163.626 419.48 171.015 435.97 167.497C455.007 163.432 461.311 147.832 476.956 139.804C478.826 138.846 480.761 138.022 482.746 137.337Z" fill="#E6E6E6"/>
<path opacity="0.7" d="M482.746 105.704V109.701C469.568 120.413 453.363 140.66 436.039 146.13C408.631 154.798 371.79 131.376 370.122 105.704H482.746Z" fill="#E6E6E6"/>
<path d="M370.83 162.29C365.554 175.857 357.229 186.157 347.465 195.351V111.048C366.239 116.678 379.738 139.393 370.83 162.29Z" fill="#E6E6E6"/>
<path d="M285.5 488.274C163.212 488.274 64.0776 482.486 64.0776 475.346C64.0776 468.206 163.212 462.419 285.5 462.419C407.788 462.419 506.922 468.206 506.922 475.346C506.922 482.486 407.788 488.274 285.5 488.274Z" fill="#F5F5F5"/>
<path d="M486.424 472.765V475.346H84.5766V308.694H111.585L157.984 339.026H202.237L251.857 371.458V384.511H272.264L328.736 421.421H366.251L412.982 451.969H446.362L486.424 472.765Z" fill="#3EB860"/>
<path opacity="0.2" d="M486.424 472.765V475.346H84.5766V308.694H111.585L157.984 339.026H202.237L251.857 371.458V384.511H272.264L328.736 421.421H366.251L412.982 451.969H446.362L486.424 472.765Z" fill="black"/>
<path d="M459.415 475.346H84.5766V311.275L130.976 341.595H175.229L224.848 374.028V387.092H245.256L301.728 424.002H339.243L385.962 454.55H419.354L459.415 475.346Z" fill="#3EB860"/>
<path opacity="0.1" d="M459.415 475.346H84.5766V311.275L130.976 341.595H175.229L224.848 374.028V387.092H245.256L301.728 424.002H339.243L385.962 454.55H419.354L459.415 475.346Z" fill="white"/>
<path d="M380.286 167.52C381.885 169.381 383.712 171.46 385.277 173.504C386.841 175.548 388.554 177.627 390.107 179.739C393.206 183.836 395.996 188.157 398.455 192.667L399.289 194.323L399.597 194.951C399.689 195.122 399.757 195.362 399.849 195.568C400.216 196.619 400.51 197.695 400.728 198.788C401.208 201.163 401.573 203.744 401.87 206.359C402.407 211.59 402.761 217.06 403.092 222.427L409.361 222.987C410.573 217.435 411.337 211.794 411.645 206.12C411.807 203.166 411.769 200.206 411.531 197.258C411.414 195.625 411.158 194.005 410.766 192.416C410.64 191.97 410.549 191.548 410.378 191.079C410.206 190.611 410.047 190.097 409.921 189.8L409.064 187.699C407.897 184.957 406.566 182.288 405.079 179.705C403.651 177.147 402.064 174.726 400.511 172.351C398.958 169.975 397.188 167.668 395.395 165.499C394.504 164.357 393.59 163.215 392.665 162.175C391.74 161.136 390.815 160.051 389.742 158.898L380.286 167.52Z" fill="#E4897B"/>
<path d="M378.219 170.398C379.361 172.511 380.651 174.555 381.896 176.462C384.043 179.762 386.122 182.617 387.606 184.581C388.942 186.352 389.799 187.391 389.799 187.391L406.712 175.868C406.712 175.868 396.434 155.86 388.52 154.581C380.366 153.291 372.909 160.919 378.219 170.398Z" fill="#3EB860"/>
<path opacity="0.3" d="M378.219 170.398C379.361 172.511 380.651 174.555 381.896 176.462C384.043 179.762 386.122 182.617 387.606 184.581C388.942 186.352 389.799 187.391 389.799 187.391L406.712 175.868C406.712 175.868 396.434 155.86 388.52 154.581C380.366 153.291 372.909 160.919 378.219 170.398Z" fill="black"/>
<path d="M348.424 414.398H340.042L339.208 394.972H347.591L348.424 414.398Z" fill="#E4897B"/>
<path d="M430.009 378.208L423.202 383.118L407.146 370.75L413.952 365.84L430.009 378.208Z" fill="#E4897B"/>
<path d="M339.208 394.972L339.631 404.988H348.024L347.602 394.972H339.208Z" fill="#CE6F64"/>
<path d="M413.952 365.84L407.146 370.75L415.437 377.123L422.232 372.212L413.952 365.84Z" fill="#CE6F64"/>
<path d="M356.932 227.532C356.932 227.532 355.973 287.236 363.476 310.647C375.353 347.728 411.234 377.762 411.234 377.762L424.07 368.501C424.07 368.501 394.207 343.125 388.668 311.903C383.746 283.844 385.836 250.452 385.836 227.532H356.932Z" fill="#3EB860"/>
<path opacity="0.7" d="M356.932 227.532C356.932 227.532 355.973 287.236 363.476 310.647C375.353 347.728 411.234 377.762 411.234 377.762L424.07 368.501C424.07 368.501 394.207 343.125 388.668 311.903C383.746 283.844 385.836 250.452 385.836 227.532H356.932Z" fill="white"/>
<path d="M402.795 220.886L399.769 226.322L410.366 227.898C410.366 227.898 411.451 223.33 408.836 220.178L402.795 220.886Z" fill="#E4897B"/>
<path d="M398.17 233.55L406.986 234.441L410.366 227.898L399.768 226.322L398.17 233.55Z" fill="#E4897B"/>
<path d="M349.292 123.85C349.189 124.512 348.755 124.992 348.31 124.992C347.865 124.992 347.613 124.318 347.716 123.656C347.819 122.993 348.253 122.514 348.698 122.514C349.144 122.514 349.395 123.176 349.292 123.85Z" fill="#263238"/>
<path d="M348.812 125.015C347.696 126.931 346.32 128.683 344.724 130.222C345.125 130.627 345.61 130.939 346.145 131.136C346.68 131.333 347.251 131.411 347.819 131.364L348.812 125.015Z" fill="#DE5753"/>
<path d="M352.307 120.515C352.358 120.517 352.409 120.508 352.457 120.49C352.504 120.472 352.548 120.445 352.585 120.41C352.622 120.375 352.652 120.333 352.673 120.286C352.694 120.24 352.705 120.189 352.707 120.138C352.707 120.083 352.696 120.028 352.674 119.977C352.653 119.926 352.621 119.88 352.581 119.841C352.143 119.392 351.603 119.053 351.007 118.855C350.411 118.656 349.776 118.603 349.155 118.699C349.104 118.709 349.055 118.729 349.011 118.758C348.967 118.787 348.93 118.824 348.901 118.868C348.872 118.912 348.853 118.961 348.843 119.012C348.834 119.064 348.835 119.117 348.847 119.168C348.856 119.218 348.876 119.266 348.904 119.309C348.932 119.352 348.969 119.388 349.011 119.417C349.053 119.446 349.101 119.466 349.151 119.476C349.202 119.486 349.253 119.486 349.304 119.476C349.798 119.409 350.3 119.46 350.771 119.624C351.241 119.789 351.666 120.063 352.01 120.424C352.05 120.459 352.098 120.486 352.149 120.502C352.2 120.517 352.254 120.522 352.307 120.515Z" fill="#263238"/>
<path d="M371.607 131.216C370.396 137.348 369.197 148.597 373.491 152.685C373.491 152.685 371.812 158.921 360.415 158.921C347.853 158.921 354.42 152.685 354.42 152.685C361.272 151.052 361.089 145.982 359.89 141.265L371.607 131.216Z" fill="#E4897B"/>
<path d="M378.15 156.842C376.791 154.718 379.075 149.602 379.075 149.602C379.075 149.602 358.873 144.52 350.628 152.32C348.915 153.93 350.811 156.306 350.811 156.306L378.15 156.842Z" fill="#3EB860"/>
<path d="M419.616 387.138C420.679 387.138 422.232 385.06 422.666 384.317C422.687 384.285 422.699 384.247 422.699 384.209C422.699 384.17 422.687 384.132 422.666 384.1C422.643 384.072 422.613 384.049 422.579 384.035C422.545 384.021 422.508 384.016 422.471 384.02C422.357 384.02 419.605 384.614 418.966 385.699C418.893 385.813 418.846 385.942 418.828 386.076C418.81 386.21 418.822 386.347 418.863 386.476C419.023 386.967 419.32 387.104 419.537 387.127L419.616 387.138ZM422.072 384.523C421.352 385.573 420.165 386.807 419.571 386.738C419.514 386.738 419.342 386.738 419.228 386.35C419.205 386.275 419.199 386.197 419.211 386.119C419.223 386.042 419.252 385.969 419.297 385.905C420.065 385.171 421.028 384.675 422.072 384.477V384.523Z" fill="#3EB860"/>
<path d="M421.135 384.534C421.617 384.546 422.098 384.488 422.563 384.363C422.591 384.344 422.614 384.319 422.63 384.289C422.646 384.259 422.655 384.226 422.655 384.192C422.655 384.158 422.646 384.124 422.63 384.094C422.614 384.065 422.591 384.039 422.563 384.02C422.483 383.952 420.599 382.444 419.354 382.57C419.202 382.587 419.055 382.634 418.922 382.708C418.788 382.783 418.671 382.883 418.577 383.004C418.472 383.112 418.409 383.254 418.399 383.405C418.388 383.555 418.431 383.704 418.52 383.826C418.931 384.329 420.096 384.534 421.135 384.534ZM422.038 384.077C420.975 384.237 419.228 384.077 418.897 383.598C418.87 383.54 418.861 383.475 418.871 383.412C418.881 383.349 418.91 383.29 418.954 383.244C419.014 383.165 419.089 383.1 419.176 383.053C419.263 383.006 419.358 382.977 419.457 382.97C420.409 383.069 421.309 383.455 422.038 384.077Z" fill="#3EB860"/>
<path d="M336.673 414.832C337.535 414.82 338.394 414.74 339.243 414.592C339.283 414.585 339.32 414.566 339.348 414.537C339.377 414.509 339.396 414.472 339.402 414.432C339.409 414.391 339.403 414.349 339.385 414.312C339.366 414.275 339.336 414.245 339.3 414.226C339.174 414.158 336.251 412.479 334.846 412.867C334.716 412.897 334.593 412.952 334.485 413.031C334.377 413.109 334.286 413.209 334.218 413.324C334.128 413.451 334.08 413.603 334.08 413.758C334.08 413.913 334.128 414.065 334.218 414.192C334.549 414.683 335.588 414.832 336.673 414.832ZM338.603 414.295C337.039 414.523 334.914 414.5 334.526 413.964C334.47 413.821 334.47 413.661 334.526 413.518C334.569 413.447 334.627 413.385 334.696 413.338C334.765 413.29 334.843 413.258 334.926 413.244C335.817 413.016 337.575 413.769 338.603 414.295Z" fill="#3EB860"/>
<path d="M339.174 414.546H339.288C339.317 414.526 339.339 414.498 339.353 414.466C339.367 414.434 339.373 414.398 339.368 414.363C339.274 413.169 338.807 412.034 338.032 411.12C337.874 410.989 337.692 410.892 337.496 410.833C337.3 410.774 337.094 410.755 336.89 410.777C336.719 410.758 336.548 410.805 336.411 410.91C336.275 411.014 336.185 411.167 336.159 411.337C335.999 412.285 338.009 414.101 339.014 414.557L339.174 414.546ZM337.118 411.12C337.372 411.124 337.617 411.212 337.815 411.371C338.449 412.1 338.847 413.004 338.957 413.964C337.918 413.335 336.559 411.908 336.673 411.348C336.673 411.348 336.673 411.154 337.061 411.12H337.118Z" fill="#3EB860"/>
<path d="M422.232 383.05L428.753 376.198C428.87 376.079 429.024 376.003 429.189 375.982C429.355 375.961 429.523 375.997 429.666 376.083L436.187 380.058C436.325 380.14 436.446 380.249 436.542 380.378C436.638 380.507 436.707 380.653 436.747 380.809C436.786 380.965 436.794 381.127 436.771 381.287C436.747 381.446 436.692 381.598 436.609 381.736C436.554 381.823 436.489 381.904 436.415 381.976C434.131 384.26 432.852 385.322 429.986 388.314C428.216 390.153 423.408 396.617 420.975 399.163C418.543 401.71 415.699 399.62 416.476 398.364C419.902 392.722 421.569 387.127 421.661 384.34C421.684 383.854 421.887 383.394 422.232 383.05Z" fill="#263238"/>
<path d="M340.099 413.404H349.235C349.401 413.403 349.562 413.459 349.691 413.563C349.82 413.667 349.909 413.813 349.943 413.975L351.61 421.398C351.682 421.713 351.627 422.044 351.455 422.317C351.284 422.591 351.011 422.786 350.697 422.86C350.598 422.871 350.499 422.871 350.4 422.86C347.088 422.86 342.315 422.609 338.158 422.609C333.304 422.609 329.113 422.871 323.415 422.871C319.989 422.871 319.018 419.388 320.457 419.08C327.023 417.641 332.379 417.481 338.055 413.986C338.67 413.609 339.377 413.407 340.099 413.404Z" fill="#263238"/>
<path opacity="0.3" d="M381.896 176.462C384.043 179.762 386.122 182.617 387.606 184.581C387.435 180.653 386.624 174.303 383.575 169.461C382.467 170.558 382.022 173.39 381.896 176.462Z" fill="black"/>
<path d="M335.748 162.861C335.291 163.58 334.458 164.676 333.692 165.693C332.927 166.709 332.048 167.748 331.18 168.776C329.433 170.82 327.651 172.853 325.79 174.806C322.205 178.687 318.276 182.234 314.05 185.404C313.068 186.121 312.05 186.788 311.001 187.402L310.304 187.802C310.224 187.802 310.19 187.905 310.042 187.95L309.859 188.03L309.608 188.11C309.42 188.168 309.23 188.214 309.037 188.247C306.761 188.565 304.451 188.534 302.185 188.156C296.834 187.309 291.546 186.104 286.357 184.547L283.65 190.257C288.738 193.547 294.251 196.125 300.038 197.92C303.31 198.98 306.741 199.463 310.179 199.348C310.695 199.323 311.21 199.269 311.72 199.188L312.508 199.039L313.353 198.834C313.946 198.673 314.526 198.471 315.089 198.228L315.443 198.08L315.729 197.943L316.3 197.669C317.773 196.949 319.2 196.161 320.594 195.305C325.734 191.957 330.497 188.063 334.8 183.691C336.913 181.555 338.968 179.385 340.898 177.079C341.881 175.937 342.828 174.795 343.776 173.515C344.812 172.192 345.762 170.804 346.62 169.359L335.748 162.861Z" fill="#E4897B"/>
<path d="M287.704 186.066L282.131 179.431L278.34 189.115C278.34 189.115 283.148 191.399 286.893 190.086L287.704 186.066Z" fill="#E4897B"/>
<path d="M273.954 177.992L272.401 185.735L278.34 189.115L282.12 179.431L273.954 177.992Z" fill="#E4897B"/>
<path d="M371.812 125.917C370.031 134.048 369.391 138.901 364.583 142.465C357.355 147.832 347.807 142.465 347.134 133.979C346.528 126.328 349.555 114.314 358.097 112.281C359.981 111.828 361.95 111.865 363.816 112.389C365.682 112.912 367.383 113.905 368.757 115.272C370.131 116.639 371.132 118.335 371.665 120.198C372.198 122.061 372.245 124.03 371.801 125.917H371.812Z" fill="#E4897B"/>
<path d="M375.25 110.032C382.387 110.226 383.244 117.249 379.703 119.316C379.703 119.316 383.815 121.292 381.702 126.008C378.482 133.169 372.315 141.037 366.011 140.603C358.188 140.066 355.961 131.547 356.235 123.142C352.113 119.248 354.602 117.352 350.525 114.977C343.308 110.774 339.654 98.7259 351.667 98.9086C363.978 99.1028 357.035 109.541 375.25 110.032Z" fill="#263238"/>
<path d="M378.813 118.288C378.813 118.288 381.565 119.716 385.802 117.249C384.329 120.858 379.806 122.342 378.813 118.288Z" fill="#263238"/>
<path d="M360.529 125.163C360.308 127.221 359.413 129.148 357.983 130.645C356.087 132.598 354.226 131.273 353.986 128.806C353.769 126.591 354.5 122.902 356.772 121.874C359.045 120.846 360.769 122.674 360.529 125.163Z" fill="#E4897B"/>
<path d="M405.775 375.056L411.04 378.196L425.064 368.078L420.393 364.504L405.775 375.056Z" fill="#3EB860"/>
<path d="M365.314 237.787C366.902 248.545 361.294 278.5 359.353 288.309C357.32 269.969 356.943 248.214 356.909 236.337C361.02 233.55 364.583 232.831 365.314 237.787Z" fill="#3EB860"/>
<path opacity="0.4" d="M365.314 237.787C366.902 248.545 361.294 278.5 359.353 288.309C357.32 269.969 356.943 248.214 356.909 236.337C361.02 233.55 364.583 232.831 365.314 237.787Z" fill="white"/>
<path d="M341.024 227.532C341.024 227.532 328.382 281.092 327.491 306.673C326.498 335.371 336.513 403.046 336.513 403.046H350.72C350.72 403.046 352.467 334.846 353.106 308.705C353.792 280.213 370.51 227.532 370.51 227.532H341.024Z" fill="#3EB860"/>
<path opacity="0.7" d="M341.024 227.532C341.024 227.532 328.382 281.092 327.491 306.673C326.498 335.371 336.513 403.046 336.513 403.046H350.72C350.72 403.046 352.467 334.846 353.106 308.705C353.792 280.213 370.51 227.532 370.51 227.532H341.024Z" fill="white"/>
<path d="M333.772 397.416C333.704 397.416 334.572 403.309 334.572 403.309H351.862L352.33 398.044L333.772 397.416Z" fill="#3EB860"/>
<path d="M337.392 182.366C337.392 185.221 337.461 188.361 337.621 191.822C338.032 201.232 339.06 212.96 341.047 227.532H385.893C386.202 220.68 381.873 187.037 388.52 154.581C383.537 153.625 378.498 152.991 373.434 152.685C367.082 152.32 360.714 152.32 354.363 152.685C350.01 153.12 345.696 153.884 341.458 154.969C341.458 154.969 337.381 159.686 337.392 182.366Z" fill="#3EB860"/>
<path opacity="0.3" d="M337.392 182.366C337.392 185.221 337.461 188.361 337.621 191.822C338.032 201.232 339.06 212.96 341.047 227.532H385.893C386.202 220.68 381.873 187.037 388.52 154.581C383.537 153.625 378.498 152.991 373.434 152.685C367.082 152.32 360.714 152.32 354.363 152.685C350.01 153.12 345.696 153.884 341.458 154.969C341.458 154.969 337.381 159.686 337.392 182.366Z" fill="black"/>
<path opacity="0.3" d="M337.392 182.366C337.392 185.221 337.461 188.361 337.621 191.822C342.885 186.683 343.24 176.188 343.24 176.188L337.392 182.366Z" fill="black"/>
<path d="M353.472 164.802C352.478 172.796 334.343 189.629 334.343 189.629L318.013 176.69C322.116 170.614 326.919 165.041 332.322 160.086C344.13 149.83 354.671 155.243 353.472 164.802Z" fill="#3EB860"/>
<path opacity="0.3" d="M353.472 164.802C352.478 172.796 334.343 189.629 334.343 189.629L318.013 176.69C322.116 170.614 326.919 165.041 332.322 160.086C344.13 149.83 354.671 155.243 353.472 164.802Z" fill="black"/>
<path d="M162.13 331.74L170.523 332.562L179.26 312.577L170.866 311.755L162.13 331.74Z" fill="#E4897B"/>
<path d="M106.263 306.616L113.572 311.321L126.819 295.915L119.51 291.21L106.263 306.616Z" fill="#E4897B"/>
<path d="M179.248 312.588L174.749 322.889H165.99L170.855 311.766L179.248 312.588Z" fill="#CE6F64"/>
<path d="M119.499 291.21L126.819 295.915L119.979 303.852L112.67 299.147L119.499 291.21Z" fill="#CE6F64"/>
<path d="M234.11 118.38C234.293 121.486 234.681 124.318 235.126 127.265C235.572 130.211 236.2 133.066 236.908 135.955C238.289 141.84 240.427 147.521 243.269 152.857C244.017 154.241 244.852 155.576 245.77 156.854C246.661 158.121 247.609 159.286 248.556 160.417C250.452 162.701 252.416 164.813 254.415 166.903C258.446 171.049 262.557 175.012 266.977 178.792L270.152 175.731C266.646 171.289 263.048 166.892 259.634 162.438C256.219 157.984 252.679 153.553 250.498 149.1C248.27 144.243 246.592 139.152 245.496 133.922C244.891 131.273 244.434 128.566 244 125.928C243.566 123.29 243.246 120.435 243.006 117.934L234.11 118.38Z" fill="#E4897B"/>
<path d="M237.604 61.7594C243.726 61.7594 250.669 68.3259 250.383 77.7474C250.098 87.1689 248.099 101.158 262.66 114.109C257.43 125.529 232.831 136.229 216.409 128.178C200.843 120.55 207.273 78.2613 218.362 67.1839C224.574 60.9828 231.826 58.9044 237.604 61.7594Z" fill="#263238"/>
<path d="M227.441 119.453C227.897 122.217 230.193 127.447 232.009 131.33C233.356 134.139 234.453 136.252 234.453 136.252L236.051 135.544L249.287 129.651C248.282 122.514 246.649 114.805 238.781 111.299C233.87 109.13 226.63 114.52 227.441 119.453Z" fill="#3EB860"/>
<path opacity="0.6" d="M227.441 119.453C227.897 122.217 230.193 127.447 232.009 131.33C233.356 134.139 234.453 136.252 234.453 136.252L236.051 135.544L249.287 129.651C248.282 122.514 246.649 114.805 238.781 111.299C233.87 109.13 226.63 114.52 227.441 119.453Z" fill="white"/>
<path d="M232.043 131.33C233.391 134.139 234.487 136.252 234.487 136.252L236.086 135.544C235.869 132.723 235.309 128.281 233.802 126.282C232.862 127.82 232.263 129.541 232.043 131.33Z" fill="#3EB860"/>
<path opacity="0.5" d="M232.043 131.41C233.391 134.219 234.487 136.332 234.487 136.332L236.086 135.624C235.869 132.803 235.309 128.361 233.802 126.362C232.862 127.9 232.263 129.621 232.043 131.41Z" fill="white"/>
<path d="M187.288 150.401L220.977 161.022C244.274 114.931 240.962 112.487 240.962 112.487C240.962 112.487 235.583 109.415 229.987 106.857L227.441 105.715C222.47 103.736 217.364 102.118 212.161 100.873C211.396 100.667 210.63 100.485 209.877 100.302C205.733 99.368 201.539 98.6778 197.315 98.2349C196.812 104.619 196.31 110.02 195.762 114.714C195.054 120.835 194.288 125.734 193.478 129.971C191.96 136.935 189.891 143.767 187.288 150.401Z" fill="#3EB860"/>
<path opacity="0.6" d="M187.288 150.401L220.977 161.022C244.274 114.931 240.962 112.487 240.962 112.487C240.962 112.487 235.583 109.415 229.987 106.857L227.441 105.715C222.47 103.736 217.364 102.118 212.161 100.873C211.396 100.667 210.63 100.485 209.877 100.302C205.733 99.368 201.539 98.6778 197.315 98.2349C196.812 104.619 196.31 110.02 195.762 114.714C195.054 120.835 194.288 125.734 193.478 129.971C191.96 136.935 189.891 143.767 187.288 150.401Z" fill="white"/>
<path d="M220.977 161.022C220.977 161.022 222.119 229.999 213.109 254.917C204.429 278.808 178.54 319.874 178.54 319.874L163.534 319.486C163.534 319.486 187.368 267.491 191.285 246.923C197.76 212.812 196.333 153.279 196.333 153.279L220.977 161.022Z" fill="#3EB860"/>
<path opacity="0.4" d="M220.977 161.022C220.977 161.022 222.119 229.999 213.109 254.917C204.429 278.808 178.54 319.874 178.54 319.874L163.534 319.486C163.534 319.486 187.368 267.491 191.285 246.923C197.76 212.812 196.333 153.279 196.333 153.279L220.977 161.022Z" fill="black"/>
<path opacity="0.3" d="M207.501 166.949L203.47 155.529L196.333 153.245C196.333 153.245 196.984 180.345 195.419 208.449C201.894 196.036 207.501 173.196 207.501 166.949Z" fill="black"/>
<path d="M213.554 158.829C213.554 158.829 190.143 212.378 175.011 242.858C162.792 267.468 124.763 300.506 124.763 300.506L114.348 293.277C114.348 293.277 142.956 254.152 151.395 237.456C178.403 184.033 171.745 162.016 187.277 150.401L213.554 158.829Z" fill="#3EB860"/>
<path opacity="0.4" d="M213.554 158.829C213.554 158.829 190.143 212.378 175.011 242.858C162.792 267.468 124.763 300.506 124.763 300.506L114.348 293.277C114.348 293.277 142.956 254.152 151.395 237.456C178.403 184.033 171.745 162.016 187.277 150.401L213.554 158.829Z" fill="black"/>
<path d="M268.119 174.92L275.747 176.336L270.346 183.645C270.346 183.645 266.36 180.87 265.526 177.353L268.119 174.92Z" fill="#E4897B"/>
<path d="M280.749 182.115L275.736 186.797L270.357 183.645L275.747 176.336L280.749 182.115Z" fill="#E4897B"/>
<path d="M116.267 309.014L108.33 303.304C108.196 303.205 108.03 303.159 107.864 303.173C107.698 303.188 107.543 303.263 107.428 303.384L102.015 309.014C101.769 309.288 101.641 309.649 101.661 310.017C101.68 310.385 101.844 310.731 102.118 310.978L102.243 311.081C105.053 313.011 106.503 313.81 109.986 316.311C112.133 317.853 116.655 321.576 119.625 323.7C122.594 325.824 124.844 323.003 123.804 321.861C119.122 316.699 117.877 313.182 117.135 310.27C116.998 309.764 116.692 309.321 116.267 309.014Z" fill="#263238"/>
<path d="M171.631 329.969H161.353C161.169 329.974 160.991 330.038 160.845 330.151C160.699 330.264 160.593 330.42 160.542 330.598L158.258 338.751C158.211 338.913 158.197 339.083 158.216 339.251C158.234 339.418 158.286 339.581 158.368 339.728C158.45 339.876 158.56 340.006 158.692 340.11C158.824 340.215 158.975 340.293 159.138 340.339C159.263 340.356 159.39 340.356 159.515 340.339H183.28C187.048 340.339 187.848 336.525 186.272 336.182C179.283 334.629 175.251 332.505 173.093 330.472C172.687 330.125 172.165 329.945 171.631 329.969Z" fill="#263238"/>
<path d="M209.854 100.325V100.93C209.854 101.284 210.094 109.461 218.453 115.913L219.298 116.564L220.326 116.336C224.757 115.376 227.703 113.538 229.108 110.877C229.759 109.642 230.056 108.25 229.965 106.857L227.418 105.715C222.447 103.736 217.341 102.118 212.138 100.873C211.384 100.69 210.619 100.496 209.854 100.325Z" fill="white"/>
<path d="M219.104 84.1654C218.51 89.3843 216.626 98.7031 212.149 100.896C212.149 100.896 212.264 108.25 219.858 114.109C229.919 111.916 227.429 105.738 227.429 105.738C222.359 102.689 223.786 98.6688 225.956 95.1514L219.104 84.1654Z" fill="#E4897B"/>
<path d="M221.891 88.6421L225.945 95.14C225.429 95.9563 224.986 96.8161 224.62 97.7095C222.622 96.7388 220.052 93.861 220.532 91.5998C220.804 90.5405 221.264 89.5387 221.891 88.6421Z" fill="#CE6F64"/>
<path d="M221.48 72.5284C218.602 80.6709 217.22 84.0512 219.493 89.8183C222.919 98.4861 233.539 100.233 238.792 93.1301C243.509 86.7235 247.414 74.5041 240.996 68.0061C238.797 65.7891 235.808 64.5364 232.685 64.5236C229.563 64.5107 226.563 65.7388 224.346 67.9376C223.042 69.2208 222.06 70.7938 221.48 72.5284Z" fill="#E4897B"/>
<path d="M232.26 63.0384C235.024 66.0419 229.348 78.6039 220.692 80.5339C212.035 82.4638 219.024 68.8055 219.024 68.8055L232.26 63.0384Z" fill="#263238"/>
<path d="M231.358 66.5558C231.038 69.9818 244.799 75.155 245.975 77.6903C245.404 73.5677 245.21 68.737 240.014 65.311C234.818 61.885 230.535 63.2211 230.535 63.2211L231.358 66.5558Z" fill="#263238"/>
<path d="M232.374 66.6928C232.374 66.6928 233.893 70.6327 239.683 75.4519C235.118 74.1484 231.207 71.1823 228.72 67.1382L232.374 66.6928Z" fill="#263238"/>
<path d="M216.558 79.1406C216.306 80.7909 216.716 82.4739 217.7 83.8228C219.013 85.6043 221.023 84.7593 221.788 82.8179C222.484 81.0592 222.644 78.0215 220.783 76.9366C220.461 76.751 220.105 76.631 219.736 76.5834C219.368 76.5359 218.993 76.5616 218.634 76.6593C218.276 76.7569 217.94 76.9245 217.646 77.1524C217.352 77.3803 217.107 77.664 216.923 77.9872C216.718 78.3403 216.593 78.734 216.558 79.1406Z" fill="#E4897B"/>
<path d="M187.448 148.266L184.97 150.801C184.776 150.995 184.97 151.326 185.37 151.441L220.669 162.609C220.785 162.661 220.915 162.673 221.038 162.645C221.162 162.616 221.273 162.547 221.354 162.449L222.61 159.537C222.69 159.332 222.485 159.081 222.153 158.966L188.076 148.186C187.974 148.142 187.862 148.127 187.751 148.141C187.641 148.155 187.536 148.198 187.448 148.266Z" fill="#263238"/>
<path d="M233.562 80.2141C233.288 80.8536 233.413 81.5274 233.836 81.6987C234.259 81.87 234.818 81.5046 235.092 80.8536C235.366 80.2027 235.241 79.5403 234.818 79.369C234.396 79.1977 233.836 79.5632 233.562 80.2141Z" fill="#263238"/>
<path d="M240.859 83.2975C240.585 83.9484 240.711 84.6108 241.133 84.7935C241.556 84.9762 242.115 84.5994 242.39 83.9484C242.664 83.2975 242.538 82.6351 242.115 82.4524C241.693 82.2697 241.133 82.658 240.859 83.2975Z" fill="#263238"/>
<path d="M241.921 82.4182L243.657 82.6237C243.657 82.6237 242.344 83.5031 241.921 82.4182Z" fill="#263238"/>
<path d="M238.29 83.4345C238.241 85.1537 238.429 86.8715 238.849 88.5393C238.419 88.6337 237.974 88.6336 237.544 88.539C237.114 88.4443 236.71 88.2574 236.36 87.9911L238.29 83.4345Z" fill="#DE5753"/>
<path d="M232.26 89.3729C232.305 89.37 232.348 89.3524 232.382 89.3228C232.416 89.2933 232.439 89.2534 232.448 89.2093C232.457 89.1652 232.451 89.1193 232.432 89.0787C232.412 89.0382 232.38 89.0051 232.34 88.9847C231.53 88.6606 230.807 88.1507 230.229 87.4961C229.652 86.8416 229.237 86.0606 229.017 85.2161C229.014 85.1905 229.006 85.1657 228.994 85.1433C228.981 85.1208 228.964 85.101 228.944 85.085C228.924 85.0691 228.901 85.0573 228.876 85.0504C228.851 85.0435 228.825 85.0416 228.8 85.0448C228.773 85.0489 228.746 85.0584 228.723 85.0728C228.7 85.0872 228.679 85.1061 228.663 85.1285C228.647 85.1509 228.636 85.1762 228.63 85.203C228.624 85.2298 228.624 85.2575 228.628 85.2846C228.851 86.2003 229.292 87.0488 229.912 87.7584C230.532 88.468 231.314 89.0179 232.191 89.3615L232.26 89.3729Z" fill="#263238"/>
<path d="M232.523 76.9594C232.591 76.9709 232.66 76.9709 232.728 76.9594C233.171 76.6936 233.67 76.5338 234.185 76.4922C234.7 76.4506 235.217 76.5284 235.697 76.7196C235.793 76.7682 235.904 76.7775 236.006 76.7455C236.109 76.7135 236.195 76.6427 236.246 76.5483C236.295 76.4509 236.304 76.3383 236.273 76.234C236.241 76.1297 236.17 76.0418 236.074 75.9887C235.475 75.7281 234.821 75.6159 234.169 75.6617C233.517 75.7074 232.886 75.9097 232.329 76.2513C232.235 76.3062 232.167 76.3958 232.139 76.5006C232.111 76.6054 232.126 76.7169 232.18 76.8109C232.222 76.8603 232.275 76.8993 232.334 76.925C232.393 76.9508 232.458 76.9625 232.523 76.9594Z" fill="#263238"/>
<path d="M245.758 81.379H245.838C245.89 81.3694 245.94 81.3496 245.984 81.3208C246.028 81.2921 246.066 81.2549 246.096 81.2114C246.125 81.1678 246.146 81.1189 246.157 81.0673C246.168 81.0157 246.168 80.9625 246.158 80.9107C246.047 80.2617 245.782 79.6489 245.385 79.1242C244.987 78.5994 244.469 78.1781 243.874 77.8958C243.772 77.8576 243.66 77.86 243.56 77.9026C243.46 77.9451 243.38 78.0245 243.337 78.1243C243.295 78.2243 243.295 78.3368 243.335 78.4373C243.376 78.5378 243.455 78.6182 243.554 78.661C244.027 78.8911 244.437 79.231 244.751 79.6522C245.065 80.0734 245.273 80.5637 245.359 81.082C245.38 81.1705 245.432 81.2487 245.505 81.303C245.578 81.3573 245.668 81.3841 245.758 81.379Z" fill="#263238"/>
<path d="M192.141 106.32C190.782 107.337 189.64 108.284 188.453 109.312C187.265 110.34 186.169 111.368 185.027 112.43C182.8 114.577 180.676 116.827 178.632 119.179C176.575 121.544 174.668 124.034 172.922 126.636C172.465 127.276 172.065 127.973 171.643 128.635C171.22 129.297 170.797 129.971 170.421 130.668C170.044 131.364 169.644 132.015 169.279 132.803L168.673 134.059L168.182 135.35C167.133 138.59 166.639 141.984 166.72 145.388C166.79 148.556 167.13 151.711 167.737 154.821C168.343 157.847 169.106 160.839 170.021 163.786C170.942 166.716 172.02 169.594 173.253 172.408L177.375 170.877C176.667 168.137 175.994 165.259 175.491 162.415C174.931 159.6 174.523 156.756 174.269 153.896C173.993 151.126 173.928 148.339 174.075 145.559C174.159 144.241 174.323 142.929 174.566 141.631C174.804 140.429 175.152 139.252 175.605 138.114L175.948 137.326L176.336 136.595C176.644 136.069 177.067 135.453 177.478 134.882C177.889 134.311 178.232 133.74 178.62 133.157C179.008 132.575 179.397 132.015 179.842 131.456C181.498 129.172 183.382 127.105 185.255 124.992C187.128 122.879 189.184 120.881 191.273 118.951C192.313 117.969 193.363 117.009 194.437 116.073C195.51 115.136 196.629 114.2 197.566 113.401L192.141 106.32Z" fill="#E4897B"/>
<path d="M176.051 168.148L182.309 172.716L174.315 176.941C174.315 176.941 171.928 172.716 172.705 169.187L176.051 168.148Z" fill="#E4897B"/>
<path d="M184.296 180.116L177.741 182.149L174.269 176.964L182.309 172.739L184.296 180.116Z" fill="#E4897B"/>
<path d="M119.271 312.588H119.408C119.607 312.564 119.796 312.488 119.956 312.368C120.117 312.248 120.242 312.087 120.321 311.903C120.383 311.795 120.416 311.673 120.416 311.549C120.416 311.425 120.383 311.303 120.321 311.195C119.762 310.236 116.621 310.053 116.267 310.053C116.229 310.053 116.192 310.064 116.16 310.084C116.127 310.104 116.101 310.133 116.084 310.167C116.062 310.201 116.05 310.241 116.05 310.281C116.05 310.322 116.062 310.362 116.084 310.396C116.838 311.229 118.197 312.588 119.271 312.588ZM116.758 310.498C118.014 310.59 119.682 310.887 119.967 311.389C120.001 311.433 120.02 311.487 120.02 311.543C120.02 311.599 120.001 311.653 119.967 311.698C119.918 311.822 119.837 311.931 119.733 312.015C119.629 312.099 119.505 312.155 119.373 312.177C118.768 312.234 117.82 311.618 116.758 310.498Z" fill="#3EB860"/>
<path d="M116.484 310.476C117.535 310.476 119.602 309.893 119.99 309.048C120.058 308.899 120.073 308.731 120.031 308.573C119.989 308.415 119.894 308.276 119.762 308.18C119.644 308.075 119.507 307.996 119.357 307.947C119.208 307.898 119.05 307.88 118.894 307.895C117.637 308.02 116.164 310.053 116.107 310.179C116.09 310.21 116.081 310.246 116.081 310.281C116.081 310.317 116.09 310.353 116.107 310.384C116.122 310.417 116.144 310.445 116.172 310.467C116.199 310.489 116.232 310.504 116.267 310.51L116.484 310.476ZM119.019 308.306C119.104 308.304 119.188 308.319 119.266 308.351C119.345 308.382 119.416 308.429 119.476 308.488C119.67 308.66 119.647 308.785 119.613 308.877C119.362 309.436 117.74 310.019 116.678 310.019C117.204 309.368 118.186 308.34 118.962 308.26L119.019 308.306Z" fill="#3EB860"/>
<path d="M176.211 331.671C176.914 331.722 177.616 331.554 178.221 331.191C178.375 331.074 178.502 330.924 178.593 330.753C178.684 330.581 178.736 330.392 178.746 330.198C178.762 330.089 178.746 329.978 178.699 329.879C178.652 329.779 178.577 329.695 178.483 329.638C177.558 329.01 174.041 330.598 173.344 330.929C173.305 330.946 173.273 330.975 173.253 331.012C173.232 331.049 173.224 331.092 173.23 331.134C173.234 331.178 173.251 331.219 173.28 331.252C173.309 331.285 173.347 331.308 173.39 331.317C174.316 331.532 175.261 331.65 176.211 331.671ZM177.855 329.89C177.995 329.88 178.134 329.912 178.255 329.981C178.283 330.005 178.305 330.035 178.319 330.068C178.332 330.102 178.338 330.139 178.335 330.175C178.331 330.31 178.297 330.442 178.233 330.561C178.17 330.68 178.079 330.782 177.969 330.86C177.376 331.317 175.948 331.374 174.098 331.043C175.282 330.462 176.55 330.073 177.855 329.89Z" fill="#3EB860"/>
<path d="M173.436 331.317H173.516C174.658 330.837 177.021 328.953 176.884 327.982C176.884 327.765 176.713 327.503 176.188 327.434C174.132 327.194 173.264 330.86 173.23 331.077C173.224 331.115 173.226 331.153 173.238 331.189C173.25 331.225 173.271 331.257 173.299 331.283C173.338 331.311 173.387 331.323 173.436 331.317ZM175.994 327.834H176.131C176.348 327.834 176.473 327.925 176.485 328.028C176.553 328.588 174.932 330.084 173.755 330.735C174.018 329.832 174.726 327.834 175.994 327.834Z" fill="#3EB860"/>
<path d="M234.624 79.3233L236.36 79.5289C236.36 79.5289 235.058 80.4082 234.624 79.3233Z" fill="#263238"/>
<path d="M180.653 320.674L162.13 320.205L163.192 314.507L183.428 315.466L180.653 320.674Z" fill="#3EB860"/>
<path opacity="0.5" d="M180.653 320.674L162.13 320.205L163.192 314.507L183.428 315.466L180.653 320.674Z" fill="white"/>
<path d="M124.238 303.955L111.996 295.241L114.771 289.897L128.224 300.072L124.238 303.955Z" fill="#3EB860"/>
<path opacity="0.5" d="M124.238 303.955L111.996 295.241L114.771 289.897L128.224 300.072L124.238 303.955Z" fill="white"/>
<path d="M190.817 153.53L189.903 153.234C189.72 153.176 189.606 153.039 189.663 152.937L191.331 149.157C191.331 149.042 191.559 148.997 191.742 149.054L192.655 149.351C192.838 149.408 192.952 149.545 192.895 149.648L191.239 153.428C191.19 153.489 191.122 153.533 191.046 153.552C190.969 153.57 190.889 153.563 190.817 153.53Z" fill="#3EB860"/>
<path d="M217.997 162.164L217.083 161.879C216.9 161.81 216.797 161.673 216.843 161.57L218.51 157.79C218.51 157.676 218.75 157.63 218.933 157.687L219.847 157.984C220.029 157.984 220.132 158.178 220.086 158.281L218.419 162.061C218.373 162.164 218.122 162.164 217.997 162.164Z" fill="#3EB860"/>
<path d="M204.418 157.824L203.504 157.539C203.467 157.538 203.43 157.529 203.397 157.512C203.363 157.496 203.334 157.472 203.311 157.442C203.288 157.412 203.272 157.378 203.264 157.342C203.256 157.305 203.256 157.267 203.264 157.231L204.932 153.451C204.932 153.348 205.172 153.302 205.354 153.359L206.257 153.645C206.439 153.702 206.553 153.839 206.508 153.953L204.84 157.733C204.789 157.791 204.72 157.831 204.644 157.848C204.568 157.864 204.489 157.856 204.418 157.824Z" fill="#3EB860"/>
<path opacity="0.4" d="M190.817 153.53L189.903 153.234C189.72 153.176 189.606 153.039 189.663 152.937L191.331 149.157C191.331 149.042 191.559 148.997 191.742 149.054L192.655 149.351C192.838 149.408 192.952 149.545 192.895 149.648L191.239 153.428C191.19 153.489 191.122 153.533 191.046 153.552C190.969 153.57 190.889 153.563 190.817 153.53Z" fill="black"/>
<path opacity="0.4" d="M217.997 162.164L217.083 161.879C216.9 161.81 216.797 161.673 216.843 161.57L218.51 157.79C218.51 157.676 218.75 157.63 218.933 157.687L219.847 157.984C220.029 157.984 220.132 158.178 220.086 158.281L218.419 162.061C218.373 162.164 218.122 162.164 217.997 162.164Z" fill="black"/>
<path opacity="0.4" d="M204.418 157.824L203.504 157.539C203.467 157.538 203.43 157.529 203.397 157.512C203.363 157.496 203.334 157.472 203.311 157.442C203.288 157.412 203.272 157.378 203.264 157.342C203.256 157.305 203.256 157.267 203.264 157.231L204.932 153.451C204.932 153.348 205.172 153.302 205.354 153.359L206.257 153.645C206.439 153.702 206.553 153.839 206.508 153.953L204.84 157.733C204.789 157.791 204.72 157.831 204.644 157.848C204.568 157.864 204.489 157.856 204.418 157.824Z" fill="black"/>
<path d="M193.375 129.994C196.607 125.426 199.702 114.794 198.902 110.808L195.705 114.737C194.997 120.858 194.232 125.757 193.375 129.994Z" fill="#3EB860"/>
<path opacity="0.5" d="M193.375 129.994C196.607 125.426 199.702 114.794 198.902 110.808L195.705 114.737C194.997 120.858 194.232 125.757 193.375 129.994Z" fill="white"/>
<path d="M197.258 98.212C192.884 98.0179 184.285 108.764 184.285 108.764L193.215 121.326C193.215 121.326 203.242 113.332 204.018 107.771C204.681 103.134 202.831 98.5089 197.258 98.212Z" fill="#3EB860"/>
<path opacity="0.6" d="M197.258 98.212C192.884 98.0179 184.285 108.764 184.285 108.764L193.215 121.326C193.215 121.326 203.242 113.332 204.018 107.771C204.681 103.134 202.831 98.5089 197.258 98.212Z" fill="white"/>
<path d="M142.499 406.552C161.262 400.842 172.887 380.389 172.887 380.389C172.887 380.389 178.837 380.058 179.123 385.425C179.614 394.858 174.486 401.664 171.334 404.919L180.356 404.416C183.572 404.235 186.796 404.574 189.903 405.421L192.895 406.244C195.384 406.93 197.505 408.563 198.805 410.793C200.105 413.023 200.48 415.674 199.85 418.178L195.556 435.719C194.264 440.994 191.053 445.599 186.549 448.635C182.045 451.672 176.572 452.921 171.197 452.141C162.004 450.805 147.695 448.715 145.217 448.269L138.684 447.721L136.4 408.368L142.499 406.552Z" fill="white"/>
<path d="M113.126 401.15H138.399C140.373 401.15 141.973 402.751 141.973 404.725V449.423C141.973 451.397 140.373 452.997 138.399 452.997H113.126C111.152 452.997 109.552 451.397 109.552 449.423V404.725C109.552 402.751 111.152 401.15 113.126 401.15Z" fill="#3EB860"/>
<path opacity="0.3" d="M113.126 401.15H138.399C140.373 401.15 141.973 402.751 141.973 404.725V449.423C141.973 451.397 140.373 452.997 138.399 452.997H113.126C111.152 452.997 109.552 451.397 109.552 449.423V404.725C109.552 402.751 111.152 401.15 113.126 401.15Z" fill="black"/>
</svg>
