<svg width="93" height="68" viewBox="0 0 93 68" fill="none" xmlns="http://www.w3.org/2000/svg">
<path d="M78.12 29.5375C78.7158 27.9134 79.05 26.1375 79.05 24.2857C79.05 16.2411 72.8016 9.71429 65.1 9.71429C62.2373 9.71429 59.5636 10.625 57.3548 12.1732C53.3297 4.8875 45.817 0 37.2 0C24.3544 0 13.95 10.8679 13.95 24.2857C13.95 24.6955 13.9645 25.1054 13.9791 25.5152C5.84156 28.5054 0 36.6107 0 46.1429C0 58.2098 9.37266 68 20.925 68H74.4C84.6736 68 93 59.3027 93 48.5714C93 39.1759 86.6062 31.3286 78.12 29.5375ZM57.1659 38.8571H47.6625V55.8571C47.6625 57.1929 46.6162 58.2857 45.3375 58.2857H38.3625C37.0838 58.2857 36.0375 57.1929 36.0375 55.8571V38.8571H26.5341C24.4561 38.8571 23.4244 36.2464 24.892 34.7134L40.208 18.7152C41.1089 17.7741 42.5911 17.7741 43.492 18.7152L58.808 34.7134C60.2756 36.2464 59.2294 38.8571 57.1659 38.8571Z" fill="#3EB860"/>
</svg>
